<!-- Generated by IcoMoon.io -->
<svg version="1.1" xmlns="http://www.w3.org/2000/svg" width="32" height="32" viewBox="0 0 32 32">
<title>Logo-3</title>
<path fill="#2196f3" d="M7.289 13.314h-0.001c-0.724 0-1.311 0.522-1.311 1.165v0.001c0 0.643 0.587 1.165 1.311 1.165h0.001c0.724 0 1.311-0.522 1.311-1.165v-0.001c0-0.643-0.587-1.165-1.311-1.165z"></path>
<path fill="#2196f3" d="M16.965 12.942c-0.002-0.894-0.402-1.75-1.113-2.382s-1.675-0.988-2.68-0.99v0c-1.006 0.002-1.97 0.357-2.681 0.989s-1.112 1.489-1.114 2.383v0 4.928c0 0 7.587-0.751 7.588-4.927v-0.001z"></path>
<path fill="#2196f3" d="M3.321 19.487c0.002 0.622 0.28 1.218 0.775 1.657s1.165 0.688 1.865 0.689v0c0.699-0.002 1.37-0.25 1.864-0.689s0.773-1.035 0.775-1.657v0-3.429c0 0-5.28 0.523-5.28 3.428zM5.96 20.101c-0.137 0-0.27-0.036-0.384-0.104s-0.202-0.163-0.255-0.276c-0.052-0.112-0.066-0.236-0.039-0.355s0.093-0.229 0.189-0.315c0.097-0.086 0.22-0.144 0.354-0.168s0.273-0.012 0.399 0.035c0.126 0.047 0.234 0.125 0.31 0.226s0.117 0.22 0.117 0.341c0 0.081-0.017 0.161-0.052 0.236s-0.085 0.143-0.15 0.2c-0.064 0.057-0.141 0.103-0.225 0.134s-0.174 0.047-0.265 0.047v-0.002z"></path>
</svg>
